<?xml version="1.0" encoding="utf-8"?>
<!-- Generator: Adobe Illustrator 27.5.0, SVG Export Plug-In . SVG Version: 6.00 Build 0)  -->
<svg version="1.1" xmlns="http://www.w3.org/2000/svg" xmlns:xlink="http://www.w3.org/1999/xlink" x="0px" y="0px"
	 viewBox="0 0 500 500" style="enable-background:new 0 0 500 500;" xml:space="preserve">
<g id="BACKGROUND">
	<g>
		<path style="fill:#55D971;" d="M68.377,419.851c0,0,29.911-16.478,72.797-7.658c42.885,8.82,75.508-5.87,99.594-5.87
			s97.028,3.06,132.424,0s74.673,12.901,74.673,12.901L68.377,419.851z"/>
		<g>
			<g>
				<path style="fill:#55D971;" d="M347.999,393.952c6.283-2.121,9.516-9.526,8.036-14.005c-1.096-3.317-4.208-3.306-4.822-6.658
					c-0.671-3.669,2.743-5.395,2.755-9.413c0.012-3.853-4.476-3.943-5.281-8.725c-0.365-2.171,0.261-3.187-0.688-5.051
					c-0.735-1.441-2.533-3.626-4.363-3.444c-2.437,0.242-2.288,4.422-6.658,10.332c-2.914,3.94-4.437,4.051-4.592,6.199
					c-0.28,3.879,4.548,5.47,4.133,9.184c-0.307,2.745-3.04,2.734-4.362,5.97c-1.673,4.092,0.208,10.203,4.592,13.546
					C337.187,392.22,342.198,395.91,347.999,393.952z"/>
				
					<line style="fill:none;stroke:#2FA348;stroke-width:0.5;stroke-linecap:round;stroke-miterlimit:10;" x1="343.97" y1="413.433" x2="343.97" y2="355.497"/>
				
					<line style="fill:none;stroke:#2FA348;stroke-width:0.5;stroke-linecap:round;stroke-miterlimit:10;" x1="337.889" y1="365.984" x2="343.97" y2="373.435"/>
				
					<line style="fill:none;stroke:#2FA348;stroke-width:0.5;stroke-linecap:round;stroke-miterlimit:10;" x1="334.965" y1="380.062" x2="343.97" y2="386.126"/>
				
					<line style="fill:none;stroke:#2FA348;stroke-width:0.5;stroke-linecap:round;stroke-miterlimit:10;" x1="349.685" y1="377.571" x2="343.97" y2="383.094"/>
				
					<line style="fill:none;stroke:#2FA348;stroke-width:0.5;stroke-linecap:round;stroke-miterlimit:10;" x1="349.606" y1="362.453" x2="343.97" y2="367.361"/>
			</g>
			<g>
				<path style="fill:#55D971;" d="M401.213,393.952c6.283-2.121,9.516-9.526,8.036-14.005c-1.096-3.317-4.208-3.306-4.822-6.658
					c-0.671-3.669,2.743-5.395,2.755-9.413c0.012-3.853-4.476-3.943-5.281-8.725c-0.365-2.171,0.262-3.187-0.688-5.051
					c-0.735-1.441-2.533-3.626-4.362-3.444c-2.437,0.242-2.288,4.422-6.658,10.332c-2.914,3.94-4.437,4.051-4.592,6.199
					c-0.28,3.879,4.548,5.47,4.133,9.184c-0.307,2.745-3.039,2.734-4.362,5.97c-1.673,4.092,0.208,10.203,4.592,13.546
					C390.401,392.22,395.412,395.91,401.213,393.952z"/>
				
					<line style="fill:none;stroke:#2FA348;stroke-width:0.5;stroke-linecap:round;stroke-miterlimit:10;" x1="397.184" y1="413.433" x2="397.184" y2="355.497"/>
				
					<line style="fill:none;stroke:#2FA348;stroke-width:0.5;stroke-linecap:round;stroke-miterlimit:10;" x1="391.103" y1="365.984" x2="397.184" y2="373.435"/>
				
					<line style="fill:none;stroke:#2FA348;stroke-width:0.5;stroke-linecap:round;stroke-miterlimit:10;" x1="388.179" y1="380.062" x2="397.184" y2="386.126"/>
				
					<line style="fill:none;stroke:#2FA348;stroke-width:0.5;stroke-linecap:round;stroke-miterlimit:10;" x1="402.899" y1="377.571" x2="397.184" y2="383.094"/>
				
					<line style="fill:none;stroke:#2FA348;stroke-width:0.5;stroke-linecap:round;stroke-miterlimit:10;" x1="402.82" y1="362.453" x2="397.184" y2="367.361"/>
			</g>
			<g>
				<path style="fill:#55D971;" d="M125.457,393.952c6.283-2.121,9.516-9.526,8.035-14.005c-1.096-3.317-4.208-3.306-4.821-6.658
					c-0.671-3.669,2.743-5.395,2.755-9.413c0.012-3.853-4.476-3.943-5.281-8.725c-0.365-2.171,1.577-3.971,0.919-5.957
					c-1.097-3.312-3.339-5.072-5.106-5.578c-2.706-0.774-8.279-0.087-7.522,13.371c0.276,4.893-4.437,4.051-4.592,6.199
					c-0.28,3.879,4.547,5.47,4.133,9.184c-0.307,2.745-3.04,2.734-4.362,5.97c-1.673,4.092,0.208,10.203,4.592,13.546
					C114.645,392.22,119.656,395.91,125.457,393.952z"/>
				
					<line style="fill:none;stroke:#2FA348;stroke-width:0.5;stroke-linecap:round;stroke-miterlimit:10;" x1="121.428" y1="413.433" x2="121.428" y2="355.497"/>
				
					<line style="fill:none;stroke:#2FA348;stroke-width:0.5;stroke-linecap:round;stroke-miterlimit:10;" x1="115.347" y1="365.984" x2="121.428" y2="373.435"/>
				
					<line style="fill:none;stroke:#2FA348;stroke-width:0.5;stroke-linecap:round;stroke-miterlimit:10;" x1="112.424" y1="380.062" x2="121.428" y2="386.126"/>
				
					<line style="fill:none;stroke:#2FA348;stroke-width:0.5;stroke-linecap:round;stroke-miterlimit:10;" x1="127.143" y1="377.571" x2="121.428" y2="383.094"/>
				
					<line style="fill:none;stroke:#2FA348;stroke-width:0.5;stroke-linecap:round;stroke-miterlimit:10;" x1="127.064" y1="362.453" x2="121.428" y2="367.361"/>
			</g>
		</g>
	</g>
	<g>
		<path style="fill:#2A2A2A;" d="M327.032,63.902c-0.002,0-0.005,0-0.007,0c-0.12-0.004-0.223-0.089-0.247-0.206
			c-0.61-2.887-4.541-3.475-4.581-3.481c-0.142-0.02-0.241-0.152-0.221-0.294c0.019-0.142,0.152-0.243,0.294-0.221
			c0.162,0.023,3.681,0.551,4.784,3.147c0.514-1.153,1.827-3.267,4.529-3.267c0.143,0,0.26,0.116,0.26,0.26
			c0,0.144-0.117,0.26-0.26,0.26c-3.291,0-4.26,3.462-4.3,3.609C327.253,63.823,327.15,63.902,327.032,63.902z"/>
		<path style="fill:#2A2A2A;" d="M312.337,74.776c-0.002,0-0.005,0-0.007,0c-0.12-0.003-0.223-0.089-0.247-0.206
			c-0.61-2.887-4.541-3.475-4.581-3.481c-0.142-0.02-0.241-0.152-0.221-0.294c0.02-0.142,0.149-0.242,0.294-0.221
			c0.162,0.023,3.682,0.551,4.784,3.147c0.515-1.153,1.828-3.267,4.529-3.267c0.143,0,0.26,0.117,0.26,0.26
			c0,0.144-0.117,0.26-0.26,0.26c-3.298,0-4.29,3.572-4.3,3.608C312.558,74.697,312.455,74.776,312.337,74.776z"/>
		<path style="fill:#2A2A2A;" d="M349.538,57.235c-0.002,0-0.005,0-0.007,0c-0.12-0.004-0.223-0.089-0.247-0.206
			c-0.61-2.887-4.541-3.475-4.581-3.48c-0.142-0.02-0.241-0.152-0.22-0.294c0.02-0.142,0.151-0.239,0.294-0.221
			c0.162,0.023,3.681,0.55,4.784,3.147c0.514-1.153,1.827-3.267,4.529-3.267c0.143,0,0.26,0.116,0.26,0.26
			c0,0.144-0.117,0.26-0.26,0.26c-3.291,0-4.26,3.462-4.3,3.609C349.758,57.156,349.655,57.235,349.538,57.235z"/>
		<path style="fill:#2A2A2A;" d="M318.413,52.453c-0.002,0-0.005,0-0.007,0c-0.12-0.003-0.222-0.089-0.247-0.206
			c-0.61-2.887-4.541-3.475-4.581-3.48c-0.142-0.02-0.241-0.152-0.221-0.294c0.02-0.142,0.152-0.238,0.294-0.221
			c0.162,0.023,3.681,0.551,4.784,3.147c0.515-1.153,1.828-3.267,4.529-3.267c0.143,0,0.26,0.116,0.26,0.26
			c0,0.144-0.117,0.26-0.26,0.26c-3.298,0-4.29,3.572-4.3,3.608C318.633,52.375,318.531,52.453,318.413,52.453z"/>
	</g>
	<path style="fill:#BFFFD6;" d="M89.472,90.414c3.25-0.172,5.835-2.854,5.835-6.147c0-3.404-2.76-6.164-6.164-6.164
		c-0.621,0-1.219,0.094-1.784,0.264c-1.045-4.304-4.914-7.503-9.539-7.503c-4.586,0-8.426,3.145-9.511,7.393
		c-0.437-0.098-0.89-0.154-1.356-0.154c-3.404,0-6.164,2.759-6.164,6.164c0,3.239,2.501,5.888,5.676,6.137"/>
	<path style="fill:#BFFFD6;" d="M428.05,135.795c6.861-0.363,12.317-6.024,12.317-12.976c0-7.186-5.825-13.011-13.011-13.011
		c-1.31,0-2.573,0.198-3.766,0.558c-2.207-9.084-10.372-15.837-20.135-15.837c-9.679,0-17.786,6.639-20.075,15.605
		c-0.923-0.207-1.878-0.326-2.863-0.326c-7.186,0-13.011,5.825-13.011,13.011c0,6.837,5.279,12.428,11.981,12.954"/>
	<path style="fill:#BFFFD6;" d="M441.689,303.19c3.25-0.172,5.835-2.854,5.835-6.147c0-3.404-2.76-6.164-6.164-6.164
		c-0.621,0-1.219,0.094-1.784,0.264c-1.046-4.304-4.914-7.503-9.539-7.503c-4.586,0-8.426,3.146-9.511,7.393
		c-0.437-0.098-0.89-0.154-1.356-0.154c-3.404,0-6.164,2.76-6.164,6.164c0,3.239,2.501,5.888,5.676,6.137"/>
	<path style="fill:#BFFFD6;" d="M101.758,291.18c6.746-0.356,12.111-5.923,12.111-12.759c0-7.066-5.728-12.793-12.794-12.793
		c-1.288,0-2.53,0.195-3.702,0.549c-2.17-8.932-10.199-15.572-19.799-15.572c-9.518,0-17.488,6.528-19.74,15.344
		c-0.907-0.204-1.847-0.32-2.815-0.32c-7.066,0-12.793,5.727-12.793,12.793c0,6.723,5.19,12.22,11.781,12.738"/>
</g>
<g id="OBJECTS">
	<g>
		<g style="enable-background:new    ;">
			<g style="enable-background:new    ;">
				<defs>
					<path id="SVGID_1_" style="enable-background:new    ;" d="M269.639,301.398l4.408,4.685c-0.468-0.497-0.96-0.98-1.476-1.445
						c-4.74-4.277-10.71-6.428-16.786-6.534l-4.408-4.685c6.076,0.107,12.045,2.257,16.786,6.534
						C268.679,300.418,269.171,300.9,269.639,301.398z"/>
				</defs>
				<clipPath id="SVGID_00000126298645756161505010000009812387312273402779_">
					<use xlink:href="#SVGID_1_"  style="overflow:visible;"/>
				</clipPath>
				<g style="clip-path:url(#SVGID_00000126298645756161505010000009812387312273402779_);enable-background:new    ;">
					<path style="fill:#BF46D4;" d="M269.639,301.398l4.408,4.685c-0.396-0.421-0.81-0.832-1.241-1.23l-4.408-4.685
						C268.829,300.566,269.243,300.977,269.639,301.398"/>
					<path style="fill:#BF46D4;" d="M268.398,300.168l4.408,4.685c-0.078-0.072-0.156-0.143-0.235-0.215
						c-1.703-1.537-3.565-2.799-5.534-3.79l-4.408-4.685c1.969,0.992,3.83,2.254,5.534,3.79
						C268.242,300.024,268.321,300.096,268.398,300.168"/>
					<path style="fill:#BF46D4;" d="M262.63,296.163l4.408,4.685c-1.72-0.866-3.521-1.526-5.368-1.981l-4.408-4.685
						C259.109,294.637,260.91,295.296,262.63,296.163"/>
					<path style="fill:#BF46D4;" d="M257.262,294.181l4.408,4.685c-1.924-0.474-3.898-0.728-5.884-0.762l-4.408-4.685
						C253.363,293.454,255.338,293.707,257.262,294.181"/>
				</g>
			</g>
			<g style="enable-background:new    ;">
				<defs>
					<path id="SVGID_00000101100561883567975540000017416618032664173456_" style="enable-background:new    ;" d="M233.757,343.918
						l-4.408-4.685c-9.295-9.879-9.156-25.792,0.659-36.497c5.768-6.291,13.655-9.452,21.37-9.317l4.408,4.685
						c-7.715-0.135-15.602,3.026-21.37,9.317C224.6,318.126,224.461,334.039,233.757,343.918z"/>
				</defs>
				<clipPath id="SVGID_00000037682458566853337930000004888023933444510390_">
					<use xlink:href="#SVGID_00000101100561883567975540000017416618032664173456_"  style="overflow:visible;"/>
				</clipPath>
				<g style="clip-path:url(#SVGID_00000037682458566853337930000004888023933444510390_);enable-background:new    ;">
					<path style="fill:#BF46D4;" d="M251.377,293.419l4.408,4.685c-0.42-0.007-0.84-0.005-1.261,0.007l-4.408-4.685
						C250.537,293.414,250.958,293.411,251.377,293.419"/>
					<path style="fill:#BF46D4;" d="M250.117,293.426l4.408,4.685c-1.419,0.041-2.84,0.193-4.248,0.455l-4.408-4.685
						C247.277,293.619,248.697,293.467,250.117,293.426"/>
					<path style="fill:#BF46D4;" d="M245.868,293.881l4.408,4.685c-1.186,0.22-2.363,0.519-3.522,0.894l-4.408-4.685
						C243.506,294.399,244.682,294.101,245.868,293.881"/>
					<path style="fill:#BF46D4;" d="M242.346,294.775l4.408,4.685c-1.074,0.348-2.133,0.762-3.171,1.242l-4.408-4.685
						C240.213,295.537,241.272,295.123,242.346,294.775"/>
					<path style="fill:#BF46D4;" d="M239.175,296.017l4.408,4.685c-1.027,0.475-2.032,1.015-3.01,1.618l-4.408-4.685
						C237.143,297.032,238.148,296.493,239.175,296.017"/>
					<path style="fill:#BF46D4;" d="M236.165,297.636l4.408,4.685c-1.036,0.64-2.04,1.351-3.006,2.133l-4.408-4.685
						C234.125,298.987,235.129,298.275,236.165,297.636"/>
					<path style="fill:#BF46D4;" d="M233.159,299.769l4.408,4.685c-1.105,0.896-2.16,1.885-3.151,2.966
						c-0.036,0.04-0.073,0.08-0.109,0.119l-4.408-4.685c0.036-0.04,0.072-0.08,0.109-0.12
						C230.999,301.654,232.054,300.665,233.159,299.769"/>
					<path style="fill:#BF46D4;" d="M229.899,302.855l4.408,4.685c-9.708,10.704-9.811,26.536-0.55,36.378l-4.408-4.685
						C220.088,329.391,220.191,313.559,229.899,302.855"/>
				</g>
			</g>
			<g>
				<path style="fill:#CA73D9;" d="M255.785,298.103c6.076,0.107,12.046,2.257,16.786,6.534c10.76,9.708,11.127,26.698,0.817,37.942
					c-5.768,6.291-13.655,9.452-21.37,9.317c-6.076-0.106-12.045-2.257-16.786-6.534c-10.76-9.708-11.127-26.698-0.817-37.942
					C240.183,301.13,248.07,297.968,255.785,298.103z"/>
			</g>
		</g>
		<g style="enable-background:new    ;">
			<g style="enable-background:new    ;">
				<defs>
					<path id="SVGID_00000026853158891617170460000009033832471307945636_" style="enable-background:new    ;" d="M346.077,251.125
						l4.408,4.685c-22.692-23.841-53.866-37.222-87.162-37.804l-4.408-4.685C292.211,213.903,323.385,227.284,346.077,251.125z"/>
				</defs>
				<clipPath id="SVGID_00000044137683236592789260000003412262473108518307_">
					<use xlink:href="#SVGID_00000026853158891617170460000009033832471307945636_"  style="overflow:visible;"/>
				</clipPath>
				<g style="clip-path:url(#SVGID_00000044137683236592789260000003412262473108518307_);enable-background:new    ;">
					<path style="fill:#BF46D4;" d="M346.077,251.125l4.408,4.685c-1.765-1.854-3.581-3.645-5.446-5.372l-4.408-4.685
						C342.496,247.48,344.312,249.271,346.077,251.125"/>
					<path style="fill:#BF46D4;" d="M340.632,245.753l4.408,4.685c-8.386-7.766-17.749-14.229-27.818-19.29l-4.408-4.685
						C322.882,231.524,332.245,237.988,340.632,245.753"/>
					<path style="fill:#BF46D4;" d="M312.814,226.463l4.408,4.685c-8.17-4.107-16.805-7.291-25.758-9.497l-4.408-4.685
						C296.009,219.173,304.643,222.356,312.814,226.463"/>
					<path style="fill:#BF46D4;" d="M287.055,216.966l4.408,4.685c-9.102-2.243-18.533-3.477-28.14-3.644l-4.408-4.685
						C268.523,213.489,277.954,214.723,287.055,216.966"/>
				</g>
			</g>
			<g>
				<path style="fill:#CA73D9;" d="M263.323,218.006c33.296,0.581,64.47,13.963,87.162,37.804c3.837,4.028,5.793,9.388,5.505,15.086
					c-0.289,5.716-2.792,11.079-7.037,15.118c-4.273,4.057-9.777,6.287-15.891,6.282c-5.578-0.097-10.67-2.315-14.388-6.245
					c-15.201-15.962-36.084-24.924-58.374-25.313c-3.154-0.055-6.335,0.061-9.534,0.354c-20.283,1.855-39.724,10.74-54.749,25.027
					c-4.36,4.136-9.989,6.364-15.843,6.262c-5.567-0.097-10.689-2.315-14.426-6.242c-3.837-4.037-5.793-9.397-5.495-15.104
					c0.289-5.707,2.792-11.079,7.047-15.127c22.473-21.352,51.515-34.631,81.766-37.372
					C253.847,218.099,258.609,217.924,263.323,218.006z"/>
			</g>
			<g style="enable-background:new    ;">
				<defs>
					<path id="SVGID_00000005246820913175780710000007319665440533895831_" style="enable-background:new    ;" d="M258.915,213.322
						l4.408,4.685c-4.714-0.082-9.476,0.092-14.257,0.53c-30.251,2.741-59.292,16.021-81.766,37.372
						c-4.254,4.048-6.758,9.42-7.047,15.127c-0.298,5.707,1.659,11.067,5.495,15.104l-4.408-4.685
						c-3.837-4.037-5.793-9.397-5.495-15.104c0.288-5.707,2.792-11.079,7.046-15.127c22.473-21.352,51.515-34.631,81.766-37.372
						C249.439,213.414,254.201,213.239,258.915,213.322z"/>
				</defs>
				<clipPath id="SVGID_00000137133921027798445970000002030930102868688033_">
					<use xlink:href="#SVGID_00000005246820913175780710000007319665440533895831_"  style="overflow:visible;"/>
				</clipPath>
				<g style="clip-path:url(#SVGID_00000137133921027798445970000002030930102868688033_);enable-background:new    ;">
					<path style="fill:#BF46D4;" d="M258.915,213.322l4.408,4.685c-2.009-0.035-4.027-0.023-6.051,0.035l-4.408-4.685
						C254.888,213.298,256.906,213.287,258.915,213.322"/>
					<path style="fill:#BF46D4;" d="M252.864,213.357l4.408,4.685c-2.726,0.079-5.463,0.244-8.206,0.495
						c-4.091,0.371-8.159,0.934-12.192,1.684l-4.408-4.685c4.033-0.75,8.102-1.313,12.192-1.684
						C247.401,213.601,250.139,213.436,252.864,213.357"/>
					<path style="fill:#BF46D4;" d="M232.466,215.536l4.408,4.685c-5.704,1.061-11.338,2.495-16.864,4.285l-4.408-4.685
						C221.127,218.031,226.761,216.597,232.466,215.536"/>
					<path style="fill:#BF46D4;" d="M215.602,219.821l4.408,4.685c-5.219,1.691-10.341,3.699-15.335,6.01l-4.408-4.685
						C205.261,223.52,210.383,221.511,215.602,219.821"/>
					<path style="fill:#BF46D4;" d="M200.267,225.831l4.408,4.685c-5.008,2.318-9.888,4.941-14.607,7.854l-4.408-4.685
						C190.379,230.772,195.259,228.149,200.267,225.831"/>
					<path style="fill:#BF46D4;" d="M185.66,233.685l4.408,4.685c-5.036,3.109-9.89,6.549-14.521,10.301l-4.408-4.685
						C175.771,240.233,180.624,236.794,185.66,233.685"/>
					<path style="fill:#BF46D4;" d="M171.139,243.986l4.408,4.685c-2.835,2.297-5.587,4.711-8.247,7.238
						c-0.421,0.4-0.824,0.814-1.21,1.239l-4.408-4.685c0.386-0.425,0.79-0.839,1.21-1.239
						C165.552,248.697,168.304,246.283,171.139,243.986"/>
					<path style="fill:#BF46D4;" d="M161.682,252.463l4.408,4.685c-3.518,3.875-5.576,8.746-5.836,13.888
						c-0.298,5.707,1.659,11.067,5.495,15.104l-4.408-4.685c-3.837-4.037-5.793-9.397-5.495-15.104
						C156.105,261.209,158.164,256.338,161.682,252.463"/>
				</g>
			</g>
			<g style="enable-background:new    ;">
				<defs>
					<path id="SVGID_00000051373975180007502050000005179736214178848648_" style="enable-background:new    ;" d="M403.162,192.998
						l4.408,4.685c-0.072-0.077-0.145-0.153-0.219-0.229c-36.242-37.358-85.786-58.333-138.531-59.253l-4.408-4.685
						c52.744,0.921,102.289,21.895,138.531,59.253C403.017,192.845,403.09,192.922,403.162,192.998z"/>
				</defs>
				<clipPath id="SVGID_00000167367931647255882010000005093844090719314365_">
					<use xlink:href="#SVGID_00000051373975180007502050000005179736214178848648_"  style="overflow:visible;"/>
				</clipPath>
				<g style="clip-path:url(#SVGID_00000167367931647255882010000005093844090719314365_);enable-background:new    ;">
					<path style="fill:#BF46D4;" d="M403.162,192.998l4.408,4.685c-0.072-0.077-0.145-0.153-0.219-0.229
						c-2.411-2.486-4.882-4.899-7.408-7.238l-4.408-4.685c2.526,2.339,4.996,4.753,7.408,7.238
						C403.017,192.845,403.09,192.922,403.162,192.998"/>
					<path style="fill:#BF46D4;" d="M395.535,185.531l4.408,4.685c-13.424-12.432-28.427-22.785-44.562-30.898l-4.408-4.685
						C367.108,162.746,382.111,173.099,395.535,185.531"/>
					<path style="fill:#BF46D4;" d="M350.973,154.633l4.408,4.685c-13.148-6.611-27.048-11.733-41.458-15.28l-4.408-4.685
						C323.925,142.9,337.825,148.023,350.973,154.633"/>
					<path style="fill:#BF46D4;" d="M309.515,139.353l4.408,4.685c-14.594-3.592-29.712-5.568-45.102-5.837l-4.408-4.685
						C279.803,133.785,294.921,135.761,309.515,139.353"/>
				</g>
			</g>
			<g style="enable-background:new    ;">
				<defs>
					<path id="SVGID_00000075130969852984735180000005402772718746066352_" style="enable-background:new    ;" d="M264.413,133.516
						l4.408,4.685c-7.505-0.131-15.077,0.144-22.683,0.836c-48.119,4.378-94.362,25.369-130.211,59.132
						c-4.271,4.021-6.8,9.383-7.115,15.081c-0.325,5.715,1.612,11.084,5.43,15.139l-4.408-4.685
						c-3.818-4.054-5.755-9.423-5.43-15.138c0.315-5.698,2.845-11.06,7.115-15.081c35.849-33.764,82.092-54.754,130.211-59.132
						C249.335,133.66,256.907,133.385,264.413,133.516z"/>
				</defs>
				<clipPath id="SVGID_00000143603124902077756820000016904797567701994172_">
					<use xlink:href="#SVGID_00000075130969852984735180000005402772718746066352_"  style="overflow:visible;"/>
				</clipPath>
				<g style="clip-path:url(#SVGID_00000143603124902077756820000016904797567701994172_);enable-background:new    ;">
					<path style="fill:#BF46D4;" d="M264.413,133.516l4.408,4.685c-3.219-0.056-6.449-0.038-9.69,0.056l-4.408-4.685
						C257.963,133.479,261.194,133.46,264.413,133.516"/>
					<path style="fill:#BF46D4;" d="M254.722,133.572l4.408,4.685c-4.316,0.125-8.649,0.384-12.993,0.78
						c-6.541,0.595-13.048,1.497-19.498,2.697l-4.408-4.685c6.451-1.2,12.957-2.102,19.498-2.697
						C246.073,133.957,250.406,133.698,254.722,133.572"/>
					<path style="fill:#BF46D4;" d="M222.231,137.049l4.408,4.685c-9.156,1.703-18.2,4.005-27.069,6.878l-4.408-4.685
						C204.031,141.053,213.074,138.752,222.231,137.049"/>
					<path style="fill:#BF46D4;" d="M195.161,143.927l4.408,4.685c-8.37,2.712-16.585,5.932-24.593,9.639l-4.408-4.685
						C178.576,149.859,186.791,146.638,195.161,143.927"/>
					<path style="fill:#BF46D4;" d="M170.568,153.566l4.408,4.685c-8.02,3.712-15.833,7.911-23.387,12.574l-4.408-4.685
						C154.735,161.476,162.548,157.277,170.568,153.566"/>
					<path style="fill:#BF46D4;" d="M147.181,166.139l4.408,4.685c-8.049,4.969-15.804,10.464-23.203,16.458l-4.408-4.685
						C131.377,176.603,139.132,171.108,147.181,166.139"/>
					<path style="fill:#BF46D4;" d="M123.978,182.597l4.408,4.685c-4.276,3.464-8.434,7.095-12.46,10.888
						c-0.452,0.426-0.885,0.867-1.298,1.321l-4.408-4.685c0.413-0.455,0.845-0.896,1.298-1.321
						C115.544,189.692,119.702,186.061,123.978,182.597"/>
					<path style="fill:#BF46D4;" d="M110.221,194.806l4.408,4.685c-3.484,3.839-5.536,8.666-5.818,13.76
						c-0.325,5.715,1.612,11.084,5.43,15.139l-4.408-4.685c-3.818-4.054-5.755-9.423-5.43-15.138
						C104.684,203.471,106.737,198.645,110.221,194.806"/>
				</g>
			</g>
			<g>
				<path style="fill:#CA73D9;" d="M268.82,138.201c52.744,0.921,102.289,21.895,138.531,59.253
					c3.876,3.992,5.878,9.335,5.634,15.043c-0.243,5.699-2.694,11.09-6.905,15.166c-4.221,4.085-9.701,6.36-15.985,6.41
					c-5.491-0.096-10.57-2.25-14.303-6.113c-28.764-29.665-68.048-46.306-109.849-47.036c-5.998-0.105-12.045,0.118-18.123,0.677
					c-38.194,3.465-74.887,20.131-103.329,46.92c-4.356,4.091-9.956,6.284-15.765,6.182c-5.594-0.098-10.733-2.343-14.484-6.315
					c-3.818-4.054-5.755-9.423-5.43-15.139c0.315-5.698,2.845-11.06,7.115-15.081c35.849-33.764,82.092-54.754,130.211-59.132
					C253.743,138.345,261.315,138.07,268.82,138.201z"/>
			</g>
		</g>
	</g>
	<path style="fill:#FFD385;" d="M468.064,402.879c0.186-1.447,1.224-2.581,2.318-2.534c1.094,0.047,1.829,1.258,1.643,2.704
		c-0.186,1.447-1.224,2.581-2.318,2.534C468.613,405.536,467.878,404.325,468.064,402.879z"/>
	<g>
		<path style="fill:#F2AC29;" d="M189.767,76.211c-3.124,2.907-5.502,8.53-5.126,12.273c0.355,3.532,0.793,8.085,1.038,10.788
			c0.504,5.55-2.299,8.396-7.114,15.11c-4.828,6.734-5.314,16.69-0.623,22.127c4.748,5.503,11.121,1.935,18.537-3.371
			c8.917-6.38,9.85-18.097,10.592-27.416c0.86-10.795-5.306-17.314-3.505-26.687c0.152-0.791,0.54-2.581-0.441-3.844
			C201.002,72.457,194.271,72.021,189.767,76.211z"/>
		<g>
			<g style="opacity:0.15;">
				<path d="M216.836,160.349c0,0,1.013,17.056,15.628,22.841l-4.439-31.528L216.836,160.349z"/>
			</g>
			<g style="opacity:0.15;">
				<path d="M181.595,148.821c0,0,29.609,22.2,40.619,14.686l-36.982-16.085L181.595,148.821z"/>
			</g>
			<g>
				<g>
					<g>
						<g>
							<path style="fill:#F2AC29;" d="M236.025,199.092c0,0,8.522,4.132,12.498,7.359c3.185,2.585,3.34,4.297-1.027,3.539
								c-5.578-0.968-12.184-2.256-16.054-3.577c-2.616-0.893-0.382-7.019,0.26-8.019L236.025,199.092z"/>
							<polygon style="fill:#FFC69A;" points="235.338,199.335 235.605,194.655 231.923,196.095 231.701,198.393 							"/>
						</g>
						<g>
							<path style="fill:#FFFFFF;" d="M247.102,205.392c-0.907,0.596-1.748,1.83-2.324,4.112c0.92,0.168,1.833,0.332,2.717,0.486
								c4.367,0.758,4.212-0.954,1.027-3.539C248.098,206.106,247.614,205.75,247.102,205.392z"/>
						</g>
						<path style="fill:#003D57;" d="M250.74,209.715c-4.813-1.021-14.896-3.23-17.444-4.335c-1.502-0.651-2.44-1.521-3.041-2.293
							c-0.176,1.533,0.037,2.933,1.186,3.326c3.87,1.321,10.476,2.609,16.054,3.577C249.383,210.317,250.422,210.182,250.74,209.715
							z"/>
						<polygon style="fill:#F2AC29;" points="234.645,200.727 234.652,197.227 238.935,196.995 236.909,200.642 						"/>
						<g>
							
								<path style="fill:none;stroke:#003D57;stroke-width:0.25;stroke-linecap:round;stroke-linejoin:round;stroke-miterlimit:10;" d="
								M237.481,199.704c0,0,2.426-2.065,1.964-1.132c-0.461,0.933-1.91,1.269-1.91,1.269s0.471-0.008,1.124,0.445
								c0.654,0.453,1.435,0.056,1.435,0.056"/>
							
								<path style="fill:none;stroke:#003D57;stroke-width:0.25;stroke-linecap:round;stroke-linejoin:round;stroke-miterlimit:10;" d="
								M237.823,199.635c0,0-4.447-2.935-3.491-1.48c0.956,1.456,3.429,1.718,3.429,1.718s-0.784,0.082-1.776,0.968
								c-0.993,0.885-2.371,0.384-2.371,0.384"/>
						</g>
					</g>
					<path style="fill:#003D57;" d="M190.669,126.986l-2.392,10.854c-1.255,7.094,3.87,13.732,11.053,14.285
						c6.02,0.463,13.688,2.277,25.753,3.717c0,0-1.925,22.227,6.84,40.253h3.623c0,0,1.984-44.948-1.242-49.755
						C230.43,140.569,226.595,129.949,190.669,126.986z"/>
				</g>
				<g>
					<g>
						<path style="fill:#FFB47A;" d="M195.93,100.829c0,0,5.332-0.848,11.87,8.903c6.538,9.75,11.372,15.08,11.372,15.08
							l24.336-18.43l2.593,5.276c0,0-22.379,25.6-29.491,23.878C209.498,133.814,179.884,102.459,195.93,100.829z"/>
						<path style="fill:#FFB47A;" d="M245.938,111.841c0,0,12.033-9.265,6.3-7.632c-2.603,0.742-4.889,2.714-5.805,1.897
							c-0.895-0.797,1.012-1.534,1.342-3.308c0.298-1.6-5.36,4.41-5.36,4.41L245.938,111.841z"/>
					</g>
					<path style="fill:#32A1E6;" d="M202.888,96.059c-4.151-1.522-12.272-2.377-16.066,10.745c-2.012,6.959-1.6,14.789-0.229,21.3
						c0.977,4.641-1.777,16.494-1.777,16.494s10.986,4.248,25.321,0.168l-1.121-16.747l-2.8-8.887
						c6.464-3.972,2.516-14.294,0.389-18.778c-0.937-1.975-1.181-3.083-3.142-4.048C203.273,96.214,203.081,96.13,202.888,96.059z"
						/>
					<path style="fill:#2072B5;" d="M203.527,112.856c-3.995-5.285-7.416-5.229-7.416-5.229
						c-12.931-6.042-0.875,22.977,10.937,30.01L203.527,112.856z"/>
					<path style="fill:#FFC69A;" d="M202.879,80.67l-5.777-0.032l0.668,15.549c0.02,0.459,0.165,0.915,0.423,1.294
						c2.748,4.048,4.255,3.288,4.255,3.288c1.952-0.605,0.658-3.919,0.38-6.754L202.879,80.67z"/>
					<path style="fill:#FFC69A;" d="M203.567,77.154c3.615,4.545,3,8.303,2.882,12.46c-0.149,5.271-6.13,5.574-10.593,2.802
						c-3.959-2.459-6.878-6.947-5.898-11.247C191.227,75.599,199.664,72.247,203.567,77.154z"/>
					<polygon style="fill:#FFB47A;" points="203.066,95.439 198.927,93.619 202.849,94.02 					"/>
					<g>
						<path style="fill:#E6E6E6;" d="M237.028,120.54l1.771,2.001l24.828-21.971c0.321-0.284,0.351-0.774,0.067-1.095l-1.257-1.42
							L237.028,120.54z"/>
						<path style="fill:#FFFFFF;" d="M236.991,115.841l0.045,4.708l25.409-22.485l-7.657,1.187c-0.639,0.099-1.237,0.38-1.721,0.809
							l-14.936,13.218C237.397,113.927,236.981,114.862,236.991,115.841z"/>
					</g>
					<g>
						<path style="fill:#FFC69A;" d="M197.185,100.811c0,0,3.782-0.668,7.969,10.299c4.187,10.968,7.703,17.244,7.703,17.244
							l27.847-12.508l0.872,4.887c0,0-27.074,20.77-33.619,17.498C201.413,134.96,181.183,98.803,197.185,100.811z"/>
						<path style="fill:#FFC69A;" d="M241.37,120.891c0,0,6.688-1.534,7.036-2.91c0.57-2.25,3.895-6.951,0.895-4.734
							c-1.885,1.393-4.467,3.985-5.237,2.899c-0.752-1.061,3.183-1.469,2.169-3.558l-6.687,3.746L241.37,120.891z"/>
					</g>
					<path style="fill:#32A1E6;" d="M205.061,108.208c0,0-11.075,3.885-14.137,8.142c0,0-4.884-11.996,2.337-15.118
						C202.509,97.232,205.061,108.208,205.061,108.208z"/>
					<path style="fill:#FFC69A;" d="M205.239,82.666c0,0,1.551,2.498,3.06,3.227c0,0-0.638,1.358-1.983,1.796L205.239,82.666z"/>
				</g>
				<g>
					<g>
						<g>
							<path style="fill:#F2AC29;" d="M211.481,209.257c0,0,6.837,6.555,9.627,10.848c2.235,3.439,1.855,5.116-2.066,3.051
								c-5.009-2.638-10.898-5.896-14.174-8.344c-2.214-1.655,1.796-6.796,2.715-7.55L211.481,209.257z"/>
							<polygon style="fill:#FFC69A;" points="210.753,209.277 212.447,204.907 208.501,205.144 207.582,207.262 							"/>
						</g>
						<g>
							<path style="fill:#FFFFFF;" d="M220.082,218.66c-1.046,0.288-2.226,1.203-3.476,3.198c0.824,0.443,1.642,0.88,2.436,1.298
								c3.922,2.065,4.301,0.389,2.066-3.051C220.81,219.646,220.459,219.159,220.082,218.66z"/>
						</g>
						<path style="fill:#005479;" d="M222.214,223.893c-4.265-2.453-13.179-7.658-15.263-9.492
							c-1.229-1.082-1.853-2.198-2.188-3.118c-0.639,1.404-0.867,2.803,0.105,3.529c3.276,2.448,9.165,5.706,14.174,8.344
							C220.737,224.048,221.767,224.239,222.214,223.893z"/>
						<polygon style="fill:#F2AC29;" points="209.665,210.388 210.749,207.06 214.896,208.157 211.846,211.005 						"/>
						<g>
							
								<path style="fill:none;stroke:#005479;stroke-width:0.25;stroke-linecap:round;stroke-linejoin:round;stroke-miterlimit:10;" d="
								M212.679,210.287c0,0,2.943-1.219,2.217-0.473c-0.726,0.746-2.208,0.619-2.208,0.619s0.451,0.137,0.933,0.77
								c0.482,0.632,1.348,0.494,1.348,0.494"/>
							
								<path style="fill:none;stroke:#005479;stroke-width:0.25;stroke-linecap:round;stroke-linejoin:round;stroke-miterlimit:10;" d="
								M213.025,210.327c0,0-3.328-4.161-2.866-2.482c0.462,1.679,2.734,2.69,2.734,2.69s-0.771-0.163-1.988,0.374
								c-1.217,0.537-2.374-0.364-2.374-0.364"/>
						</g>
					</g>
					<path style="fill:#005479;" d="M186.803,133.035l-1.903,3.249c-3.377,6.363-0.543,14.257,6.121,16.993
						c5.585,2.293,13.474,5.709,24.51,10.792c0,0-9.822,21.226-7.031,41.074l3.447,1.115c0,0,15.833-46.072,14.243-51.638
						C224.281,147.937,220.884,141.718,186.803,133.035z"/>
				</g>
				<path style="fill:#F2AC29;" d="M188.639,77.991c2.843-6.604,12.357-5.59,15.474-3.216c2.103,1.602,1.698,6.302,1.698,6.302
					s-1.598-2.432-1.729-2.481c-0.728,6.086-7.401,6.394-8.709,6.46c-0.118,1.541-1.502,5.675,1.812,8.063
					c0.975,0.703-3.317-1.147-5.405-3.479l-0.001,0.001C191.779,89.643,185.796,84.596,188.639,77.991z"/>
			</g>
		</g>
		<path style="fill:#FFC69A;" d="M196.625,85.894c0.939,1.02,1.13,2.372,0.428,3.019c-0.703,0.647-2.034,0.344-2.973-0.676
			c-0.939-1.02-1.131-2.372-0.428-3.019C194.355,84.571,195.686,84.873,196.625,85.894z"/>
	</g>
	<g>
		<g>
			<path style="fill:#003D57;" d="M174.861,404.947L174.861,404.947c5.353,3.395,11.939,4.413,18.111,2.798l10.362-2.711
				l9.191,8.401l-45.196,2.182L174.861,404.947z"/>
			<path style="fill:#7A5439;" d="M182.462,358.338c0,0-6.529,33.384-10.375,42.994c-0.965,2.412-2.979,3.365-6.211,2.38
				C165.876,403.712,162.196,357.852,182.462,358.338z"/>
			<polygon style="fill:#CA73D9;" points="187.651,355.646 179.452,357.737 174.65,372.778 201.828,372.778 197.026,357.737 			"/>
			<path style="fill:#CA73D9;" d="M179.452,357.737c0,0-12.393,4.424-17.144,25.106c0,0,7.693,0.9,11.465,3.556l3.122-13.621
				L179.452,357.737z"/>
			<path style="fill:#BF46D4;" d="M175.77,374.782c0,0-4.207,3.181-3.469,4.165c0.738,0.984-3.362,1.376-2.501,1.995
				c0.861,0.62,3.567,1.859,1.681,1.777c-1.886-0.082-4.599,0.967-4.599,0.967s3.474,0.868,5.321,1.801L175.77,374.782z"/>
			<path style="fill:#7A5439;" d="M214.924,403.783c0.644-1.927,0.015-3.963-1.404-4.548c-1.42-0.585-3.092,0.502-3.736,2.429
				c-0.644,1.926-0.015,3.962,1.404,4.548C212.607,406.796,214.28,405.709,214.924,403.783z"/>
			<g>
				<path style="fill:#7A5439;" d="M190.011,333.479c0,0,9.223,26.812-0.66,30.632c-8.142,3.147-3.391-24.866-3.391-24.866"/>
				<path style="fill:#4D2D22;" d="M186.197,363.254c0,0,0.792,1.284,2.242,1.082c3.851-0.537,5.017-5.221,5.105-6.198
					C193.543,358.139,190.836,365.189,186.197,363.254z"/>
				<path style="fill:#4D2D22;" d="M185.142,360.661c0,0,5.606-2.633,5.483-7.64l-6.081,3.698l0.192,1.654
					c0.019,0.166,0.043,0.331,0.071,0.496l0.166,0.959L185.142,360.661z"/>
				<path style="fill:#7A5439;" d="M178.131,341.583c0,0-2.008,10.231,6.037,15.804c2.219,1.537,10.586-1.452,10.593-17.227
					C194.766,328.247,178.027,329.493,178.131,341.583z"/>
				<path style="fill:#7A5439;" d="M193.464,348.479c1.361,0.118,2.592-1.257,2.751-3.071c0.158-1.815-0.817-3.382-2.178-3.501
					c-1.361-0.118-2.592,1.257-2.75,3.071C191.127,346.794,192.102,348.361,193.464,348.479z"/>
				<path style="fill:#7A5439;" d="M178.939,347.475c-0.968,0.337-1.388,1.656-0.939,2.946c0.449,1.29,1.598,2.063,2.566,1.726
					c0.968-0.337,1.388-1.656,0.939-2.946C181.055,347.911,179.906,347.138,178.939,347.475z"/>
				<path style="fill:#411809;" d="M175.738,349.132c0,0,11.847,1.449,16.591-7.317c0,0,0.363-0.167,1.995,2.284
					c0,0,4.303-11.297-4.573-12.811C169.974,327.916,175.738,349.132,175.738,349.132z"/>
			</g>
			<path style="fill:#CA73D9;" d="M179.638,363.778c0,0-7.772,17.693-7.519,23.238c0.166,3.625,3.003,6.68,3.003,6.68l0.649,4.678
				l-1.424,7.266h0c4.611,2.967,11.408,4.126,16.741,2.855l12.502-3.46l-1.871-3.997l5.671-18.987l-4.387-14.695L179.638,363.778z"
				/>
			<path style="fill:#E6E6E6;" d="M189.48,388.955h-4.969c-0.533,0-0.978-0.342-1.028-0.79l-1.094-9.892
				c-0.056-0.51,0.42-0.951,1.028-0.951h7.607c0.624,0,1.105,0.463,1.023,0.984l-1.543,9.892
				C190.436,388.631,189.998,388.955,189.48,388.955z"/>
			<path style="fill:#999999;" d="M189.327,388.561h-4.633c-0.497,0-0.912-0.298-0.958-0.688l-1.02-8.615
				c-0.053-0.444,0.391-0.828,0.958-0.828h7.092c0.581,0,1.03,0.403,0.954,0.857l-1.439,8.615
				C190.218,388.279,189.81,388.561,189.327,388.561z"/>
			<path style="fill:#BF46D4;" d="M207.291,382.475c0,0-4.773,9.837-7.315,10.739c-2.542,0.902,1.476-0.316,2.747,1.566
				c1.271,1.882,1.038,2.884,1.038,2.884L207.291,382.475z"/>
			<path style="fill:#7A5439;" d="M180.04,387.871c0,0,3.961,0.745,2.671,2.736c-5.079,7.841-9.661,14.625-14.928,14.805
				c-1.219,0.042-2.142-1.104-1.867-2.292C166.471,400.731,169.282,396.072,180.04,387.871z"/>
			<path style="fill:#7A5439;" d="M214.33,373.852c0,0-7.363-0.771-8.413,3.264c-1.402,5.387,0.603,14.882,2.003,23.063
				c0.703,4.105,2.026,6.249,7.004,3.604C214.924,403.783,218.276,383.326,214.33,373.852z"/>
			<path style="fill:#CA73D9;" d="M197.026,357.737c0,0,14.626,4.381,19.274,20.218c0,0-8.911,4.094-12.472,7.307l-2-12.484
				L197.026,357.737z"/>
			<path style="fill:#7A5439;" d="M191.431,386.391c-1.136-0.515,12.79,22.404,20.923,19.511
				C212.353,405.902,224.358,401.323,191.431,386.391z"/>
			<path style="fill:#7A5439;" d="M189.317,381.936c-0.064-2.382-1.314-0.942-1.928-0.394l1.036-1.447
				c1.267-2.087-0.353-1.303-0.716-0.853l-7.148,5.712c-0.439,0.351-0.791,0.799-1.027,1.309l-1.451,3.131l3.994,2.191l3.45-2.215
				C185.635,389.177,189.381,384.318,189.317,381.936z"/>
			<path style="fill:#7A5439;" d="M180.024,385.487c0,0,1.773-5.802,1.975-5.534c1.2,1.589,0.525,5.847,0.513,5.599L180.024,385.487
				z"/>
			<path style="fill:#7A5439;" d="M186.576,384.965c0.091-2.381,0.174-2.992,0.782-2.437l-0.433-0.62
				c-1.244-2.101,0.367-1.298,0.725-0.845l6.271,3.487c0.709,0.417,1.18,0.969,1.585,1.739l1.352,2.667l-2.733,2.289l-5.308-2.289
				C188.711,388.761,186.485,387.345,186.576,384.965z"/>
			<path style="fill:#7A5439;" d="M194.806,385.263l-2.495-4.736c-1.168,0.252-0.255,4.295-0.255,4.295L194.806,385.263z"/>
			<g>
				<g>
					<path style="fill:#7A5439;" d="M140.113,412.392c0,0,20.932-11.112,65.228,3.839c8.818,2.976,12.588,2.738,12.588,2.738
						l4.428,2.859l-3.999,2.774c-1.023-2.162-2.582-1.234-4.974-1.223l-1.722,0.008c-10.576,1.173-29.423,2.934-51.619,3.538
						C132.615,427.672,140.113,412.392,140.113,412.392z"/>
				</g>
				<g>
					<path style="fill:#003D57;" d="M139.64,413.538c0.339-0.983,0.985-1.837,1.826-2.45c1.649-1.203,4.833-3.38,14.635-4.738
						c10.583-1.465,35.217,5.783,35.217,5.783l-0.219,13.169c0,0-32.46,3.311-42.267,0.99c-5.053-1.196-6.544-3.033-7.837-4.377
						C139.816,420.691,138.306,417.411,139.64,413.538z"/>
				</g>
				<g>
					<path style="fill:#F2AC29;" d="M218.652,423.038c0,0,8.854,6.896,14.365,9.433c4.415,2.033,6.316,1.301,3.224-2.945
						c-3.949-5.422-8.776-11.771-12.207-15.193c-2.319-2.313-7.661,3.268-8.389,4.474L218.652,423.038z"/>
					<polygon style="fill:#7A5439;" points="218.102,422.264 215.346,422.599 212.59,420.729 215.646,418.808 					"/>
				</g>
				<g>
					<path style="fill:#FFFFFF;" d="M231.148,431.516c0.159-1.276,1.03-2.816,3.155-4.623c0.661,0.89,1.313,1.775,1.938,2.634
						c3.092,4.245,1.191,4.977-3.224,2.945C232.429,432.201,231.798,431.872,231.148,431.516z"/>
				</g>
				<path style="fill:#005479;" d="M237.649,433.12c-3.605-4.581-11.232-14.144-13.74-16.274c-1.479-1.256-2.894-1.797-4.03-2.032
					c1.537-0.99,3.138-1.496,4.156-0.48c3.431,3.423,8.258,9.771,12.207,15.193C237.578,431.362,237.978,432.537,237.649,433.12z"/>
				<polygon style="fill:#F2AC29;" points="219.668,420.716 215.951,422.555 217.913,427.673 220.763,423.167 				"/>
				<g>
					
						<path style="fill:none;stroke:#005479;stroke-width:0.25;stroke-linecap:round;stroke-linejoin:round;stroke-miterlimit:10;" d="
						M219.96,424.263c0,0-1.159,4.582-0.219,3.356c0.94-1.226,0.437-3.374,0.437-3.374s0.298,0.632,1.329,1.205
						c1.032,0.572,1.015,1.874,1.015,1.874"/>
					
						<path style="fill:none;stroke:#005479;stroke-width:0.25;stroke-linecap:round;stroke-linejoin:round;stroke-miterlimit:10;" d="
						M219.943,424.276c0,0-6.182-3.62-3.858-3.332c2.324,0.288,4.108,3.116,4.108,3.116s-0.366-0.994,0.112-2.717
						c0.478-1.723-0.945-3.088-0.945-3.088"/>
				</g>
			</g>
			<g>
				<g>
					<path style="fill:#7A5439;" d="M230.432,412.864c0,0-20.932-11.112-65.228,3.839c-8.818,2.976-12.588,2.738-12.588,2.738
						l-4.428,2.859l2.451,3.039c1.023-2.162,4.13-1.5,6.522-1.489l1.722,0.008c10.576,1.173,29.423,2.934,51.619,3.538
						C237.93,428.144,230.432,412.864,230.432,412.864z"/>
				</g>
				<g>
					<path style="fill:#003D57;" d="M230.905,414.009c-0.339-0.983-0.985-1.837-1.826-2.45c-1.649-1.203-4.833-3.38-14.635-4.737
						c-10.583-1.465-35.217,5.783-35.217,5.783l0.219,13.168c0,0,32.46,3.311,42.267,0.991c5.053-1.196,6.544-3.033,7.837-4.377
						C230.729,421.163,232.239,417.882,230.905,414.009z"/>
				</g>
				<g>
					<path style="fill:#F2AC29;" d="M150.801,423.521c0,0-8.854,6.896-14.365,9.433c-4.415,2.033-6.316,1.301-3.224-2.945
						c3.949-5.422,8.776-11.771,12.207-15.193c2.319-2.313,7.661,3.268,8.389,4.474L150.801,423.521z"/>
					<polygon style="fill:#7A5439;" points="151.351,422.747 154.107,423.081 156.864,421.212 153.808,419.29 					"/>
				</g>
				<g>
					<path style="fill:#FFFFFF;" d="M138.305,431.998c-0.158-1.276-1.03-2.816-3.155-4.623c-0.661,0.89-1.313,1.775-1.938,2.634
						c-3.092,4.245-1.191,4.977,3.224,2.945C137.024,432.683,137.656,432.355,138.305,431.998z"/>
				</g>
				<path style="fill:#005479;" d="M131.805,433.603c3.605-4.581,11.232-14.144,13.74-16.274c1.479-1.256,2.894-1.797,4.03-2.032
					c-1.537-0.99-3.138-1.496-4.156-0.48c-3.431,3.423-8.258,9.771-12.207,15.193C131.876,431.844,131.476,433.02,131.805,433.603z"
					/>
				<polygon style="fill:#F2AC29;" points="149.785,421.198 153.502,423.037 151.54,428.155 148.69,423.649 				"/>
				<g>
					
						<path style="fill:none;stroke:#005479;stroke-width:0.25;stroke-linecap:round;stroke-linejoin:round;stroke-miterlimit:10;" d="
						M149.494,424.746c0,0,1.159,4.582,0.219,3.356c-0.94-1.226-0.437-3.374-0.437-3.374s-0.298,0.633-1.329,1.205
						c-1.032,0.573-1.015,1.874-1.015,1.874"/>
					
						<path style="fill:none;stroke:#005479;stroke-width:0.25;stroke-linecap:round;stroke-linejoin:round;stroke-miterlimit:10;" d="
						M149.511,424.758c0,0,6.182-3.62,3.858-3.332c-2.324,0.288-4.108,3.116-4.108,3.116s0.367-0.994-0.112-2.717
						c-0.479-1.723,0.945-3.088,0.945-3.088"/>
				</g>
			</g>
			<path style="fill:#411809;" d="M193.639,348.463c0,0-1.311,10.369,1.927,14.437c3.238,4.068,0.443,12.534,0.443,12.534
				s3.699-3.958,3.704-12.073C199.721,348.764,193.639,348.463,193.639,348.463z"/>
			<path style="fill:#4D2D22;" d="M183.311,353.779l3.389-0.672C186.699,353.107,188.138,355.063,183.311,353.779z"/>
		</g>
	</g>
	<g>
		<g>
			<g>
				<path style="fill:#FFB47A;" d="M285.628,275.258c0,0,5.839-1.11,13.357,9.402c7.518,10.511,13.013,16.214,13.013,16.214
					l13.35-12.085l3.174,2.442c0,0-16.633,21.306-18.986,21.527C301.518,313.514,268.027,277.585,285.628,275.258z"/>
				<path style="fill:#FFB47A;" d="M327.398,292.42c0,0,5.956-4.848,5.625-6.401c-0.54-2.541,0.473-8.904-1.443-5.195
					c-1.204,2.331-2.514,6.21-3.824,5.501c-1.28-0.693,2.47-3.049,0.418-4.645l-2.574,4.344c-0.784,1.323-0.703,2.987,0.207,4.227
					L327.398,292.42z"/>
			</g>
			<path style="fill:#E6E6E6;" d="M328.192,291.205l-1.353-0.932l8.817-12.797l1,0.689c0.195,0.135,0.245,0.402,0.11,0.597
				L328.192,291.205z"/>
			<path style="fill:#FFFFFF;" d="M326.846,290.267l-0.842-1.385c-0.057-0.093-0.053-0.212,0.009-0.302l7.496-10.88
				c0.049-0.071,0.127-0.115,0.213-0.12l1.941-0.11L326.846,290.267z"/>
			<g>
				<g>
					<path style="fill:#32A1E6;" d="M294.115,417.778c0,0,9.599,3.631,14.202,6.726c3.688,2.48,4.022,4.312-0.764,3.919
						c-6.113-0.502-13.367-1.25-17.672-2.299c-2.91-0.709-1.095-7.537-0.499-8.679L294.115,417.778z"/>
					<polygon style="fill:#FFC69A;" points="293.249,417.717 294.574,413.974 289.427,414.144 289.381,417.445 					"/>
				</g>
				<g>
					<path style="fill:#FFFFFF;" d="M306.681,423.5c-0.921,0.731-1.708,2.145-2.108,4.663c1.009,0.092,2.011,0.18,2.979,0.26
						c4.786,0.393,4.453-1.439,0.764-3.919C307.826,424.174,307.269,423.837,306.681,423.5z"/>
				</g>
				<path style="fill:#003D57;" d="M311.028,427.811c-5.293-0.634-16.389-2.037-19.246-2.982c-1.685-0.557-2.781-1.404-3.505-2.179
					c-0.041,1.671,0.326,3.162,1.603,3.473c4.305,1.049,11.559,1.797,17.672,2.299C309.621,428.593,310.73,428.346,311.028,427.811z
					"/>
				<polygon style="fill:#32A1E6;" points="292.785,419.677 292.452,415.899 297.382,414.996 295.22,419.365 				"/>
				<g>
					
						<path style="fill:none;stroke:#003D57;stroke-width:0.25;stroke-linecap:round;stroke-linejoin:round;stroke-miterlimit:10;" d="
						M295.694,418.216c0,0,3.026-3.086,2.516-1.769c-0.51,1.317-2.426,1.947-2.426,1.947s0.635-0.069,1.574,0.464
						c0.938,0.533,1.946-0.1,1.946-0.1"/>
					
						<path style="fill:none;stroke:#003D57;stroke-width:0.25;stroke-linecap:round;stroke-linejoin:round;stroke-miterlimit:10;" d="
						M295.695,418.197c0,0-5.769-3.103-4.438-1.426c1.331,1.677,4.388,1.725,4.388,1.725s-0.951,0.187-2.068,1.381
						c-1.118,1.194-2.861,0.732-2.861,0.732"/>
				</g>
				<g>
					<path style="fill:#003D57;" d="M298.13,328.507l-18.535-17.935c0,0-0.221,42.907,11.09,62.832c0,0-2.809,34.297-1.182,41.881
						l4.737,0.284c0,0,10.532-38.391,10.385-44.662C304.356,359.37,303.836,347.742,298.13,328.507z"/>
				</g>
			</g>
			<g>
				<g>
					<path style="fill:#32A1E6;" d="M284.23,419.064c0,0,10.244,4.583,15.07,8.259c3.867,2.945,4.112,4.967-1.088,4.229
						c-6.641-0.943-14.512-2.227-19.144-3.651c-3.131-0.962-0.709-8.299,0.015-9.507L284.23,419.064z"/>
					<polygon style="fill:#FFC69A;" points="283.288,418.941 284.977,414.94 279.346,414.793 279.083,418.394 					"/>
				</g>
				<g>
					<path style="fill:#FFFFFF;" d="M297.58,426.121c-1.053,0.739-2.003,2.231-2.602,4.955c1.096,0.166,2.183,0.327,3.236,0.476
						c5.2,0.738,4.954-1.284,1.088-4.229C298.785,426.931,298.199,426.527,297.58,426.121z"/>
				</g>
				<path style="fill:#005479;" d="M302.046,431.108c-5.737-1.034-17.76-3.282-20.818-4.497c-1.803-0.717-2.945-1.713-3.686-2.605
					c-0.153,1.822,0.151,3.473,1.526,3.895c4.632,1.423,12.503,2.708,19.144,3.651C300.46,431.871,301.686,431.672,302.046,431.108z
					"/>
				<polygon style="fill:#32A1E6;" points="282.655,421.051 282.536,416.905 287.976,416.237 285.334,420.868 				"/>
				<g>
					
						<path style="fill:none;stroke:#005479;stroke-width:0.25;stroke-linecap:round;stroke-linejoin:round;stroke-miterlimit:10;" d="
						M285.925,419.644c0,0,3.503-3.173,2.861-1.768c-0.642,1.405-2.775,1.969-2.775,1.969s0.698-0.034,1.688,0.608
						c0.99,0.642,2.131,0.017,2.131,0.017"/>
					
						<path style="fill:none;stroke:#005479;stroke-width:0.25;stroke-linecap:round;stroke-linejoin:round;stroke-miterlimit:10;" d="
						M285.928,419.622c0,0-6.098-3.76-4.753-1.844c1.345,1.917,4.679,2.166,4.679,2.166s-1.05,0.143-2.347,1.374
						c-1.297,1.231-3.171,0.614-3.171,0.614"/>
				</g>
				<g>
					<path style="fill:#005479;" d="M294.375,321.864l-19.077-20.776c0,0-3.011,46.827,8.051,69.31c0,0-5.28,37.261-3.993,45.646
						l5.153,0.616c0,0,13.975-41.232,14.22-48.088C299.18,355.959,299.363,343.233,294.375,321.864z"/>
				</g>
			</g>
			<g>
				<path style="fill:#FFC69A;" d="M304.253,258.346c1.253,4.236,0.113,9.176-2.103,13.173c-2.404,4.337-9.267,0.987-11.72-3.301
					c-2.176-3.804-2.035-9.303,0.697-12.422C294.667,251.754,302.58,252.693,304.253,258.346z"/>
				<path style="fill:#FFC69A;" d="M297.314,261.259l-7.491-3.061l-7.404,18.118c-1.06,2.594,0.184,5.557,2.778,6.617l0,0
					c2.791,1.141,5.955-0.39,6.794-3.286L297.314,261.259z"/>
				<polygon style="fill:#FFB47A;" points="293.742,273.605 289.915,268.181 294.233,271.975 				"/>
			</g>
			<path style="fill:#F2AC29;" d="M299.961,287.832c-0.075-2.594-1.361-7.853-3.113-9.767c-2.178-2.38-4.03-3.876-5.151-4.287
				c-4.569-1.675-16.774-1.888-18.822,15.218c-2.243,18.733,0.953,45.199,0.953,45.199s7.387,1.071,29.977-1.786l-3.115-23.792
				L299.961,287.832z"/>
			<path style="fill:#FFC69A;" d="M285.522,279.909c0,0,5.839-1.11,13.357,9.402c7.518,10.511,13.014,16.214,13.014,16.214
				l13.35-12.085l3.174,2.442c0,0-16.633,21.306-18.986,21.527C301.411,318.165,267.921,282.236,285.522,279.909z"/>
			<path style="fill:#FFC69A;" d="M304.564,260.688c0,0,0.78,3.46,2.21,4.887c0,0-1.264,1.295-2.97,1.262L304.564,260.688z"/>
			<path style="fill:#FFC69A;" d="M327.292,297.071c0,0,5.956-4.848,5.625-6.401c-0.54-2.541,0.473-8.904-1.443-5.195
				c-1.204,2.331-2.514,6.21-3.825,5.501c-1.28-0.693,2.47-3.049,0.418-4.645l-2.574,4.344c-0.784,1.323-0.702,2.987,0.207,4.227
				L327.292,297.071z"/>
		</g>
		<path style="fill:#411809;" d="M291.371,263.892c0,0,1.381-4.944,7.646-4.982c6.265-0.038,6.942,0.032,8.463-3.47
			c1.488-3.427-1.521-6.866-1.521-6.866s-7.832-1.713-14.77,1.693C285.933,252.847,282.847,263.848,291.371,263.892z"/>
		<ellipse style="fill:#FFC69A;" cx="291.656" cy="262.233" rx="1.843" ry="2.146"/>
	</g>
</g>
<g id="DESIGNED_BY_FREEPIK">
	<g>
		<g id="XMLID_319_">
			<g id="XMLID_338_">
				<g id="XMLID_346_">
					<path style="fill:#999999;" d="M260.104,465.465c-0.432,0.443-0.803,0.931-1.108,1.453l-0.465-0.241
						c-0.067-0.298-0.349-0.503-0.659-0.466c-0.331,0.039-0.568,0.339-0.529,0.67s0.339,0.568,0.67,0.529
						c0.065-0.008,0.127-0.026,0.184-0.052l0.451,0.234c-0.251,0.554-0.433,1.139-0.539,1.744l0.746,0.132
						c0.23-1.306,0.85-2.507,1.792-3.473L260.104,465.465z"/>
				</g>
				<g id="XMLID_345_">
					<path style="fill:#999999;" d="M265.592,463.163c-0.171,0-0.341,0.006-0.51,0.017l-0.074-0.626
						c0.188-0.149,0.296-0.389,0.266-0.645c-0.046-0.393-0.402-0.674-0.795-0.628s-0.674,0.402-0.628,0.795
						c0.03,0.254,0.189,0.461,0.405,0.564l0.073,0.624c-0.714,0.116-1.403,0.332-2.06,0.646l0.327,0.684
						c0.934-0.447,1.942-0.673,2.995-0.673c0.496,0,0.993,0.053,1.475,0.158l0.161-0.741
						C266.693,463.222,266.142,463.163,265.592,463.163z"/>
				</g>
				<g id="XMLID_344_">
					<path style="fill:#999999;" d="M272.194,465.711c0.331-0.04,0.566-0.341,0.525-0.672c-0.04-0.331-0.341-0.566-0.672-0.526
						c-0.309,0.038-0.535,0.304-0.53,0.609l-0.416,0.363c-0.418-0.43-0.89-0.813-1.408-1.139l-0.404,0.641
						c1.134,0.715,2.021,1.726,2.563,2.925l0.691-0.313c-0.251-0.554-0.568-1.072-0.942-1.545l0.402-0.351
						C272.065,465.716,272.129,465.719,272.194,465.711z"/>
				</g>
				<g id="XMLID_343_">
					<path style="fill:#999999;" d="M265.044,473.372c-0.386,0.023-0.775,0.035-1.157,0.035c-0.88,0-1.733-0.061-2.478-0.179
						c-0.39-0.062-0.846-0.155-1.27-0.292c1.046,1.861,3.069,3.125,5.388,3.125c2.855,0,5.262-1.916,5.95-4.504
						c-0.682,0.449-1.505,0.825-2.459,1.123C267.839,473.047,266.464,473.286,265.044,473.372z"/>
				</g>
				<g id="XMLID_339_">
					<path style="fill:#999999;" d="M265.592,464.68c-3.352,0-6.08,2.666-6.08,5.943c0,0.426,0.046,0.849,0.137,1.261
						c0.674,0.483,2.706,0.89,5.348,0.731c2.879-0.173,5.297-0.957,6.672-2.159c-0.005-0.195-0.021-0.39-0.045-0.582
						C271.244,466.913,268.65,464.68,265.592,464.68z M263.432,471.194c-1.02,0-1.85-0.83-1.85-1.85c0-1.02,0.83-1.85,1.85-1.85
						c1.02,0,1.85,0.83,1.85,1.85C265.282,470.365,264.452,471.194,263.432,471.194z M268.17,470.286c-0.75,0-1.36-0.61-1.36-1.36
						s0.61-1.361,1.36-1.361c0.75,0,1.361,0.61,1.361,1.361S268.92,470.286,268.17,470.286z"/>
				</g>
			</g>
			<g id="XMLID_336_">
				<path style="fill:#999999;" d="M281.595,466.547c-0.295-0.116-0.806-0.309-1.382-0.237c-0.551,0.069-0.844,0.341-0.844,1.007
					v0.866h2.228v1.717h-2.228v5.455h-1.932v-5.455h-1.34v-1.717h1.34v-0.888c0-1.68,0.896-2.783,2.568-2.783
					c0.642,0,1.157,0.122,1.59,0.308L281.595,466.547z"/>
			</g>
			<g id="XMLID_334_">
				<path style="fill:#999999;" d="M286.298,469.879c-0.177-0.03-0.358-0.046-0.526-0.046c-0.896,0-1.51,0.548-1.51,1.614v3.908
					h-1.932v-7.172h1.873v0.785c0.451-0.673,1.14-0.977,2.021-0.977c0.414,0,0.848,0.128,1.094,0.337L286.298,469.879z"/>
			</g>
			<g id="XMLID_331_">
				<path style="fill:#999999;" d="M293.965,471.757c0,0.222-0.015,0.489-0.037,0.651h-5.085c0.207,1.036,0.933,1.488,1.843,1.488
					c0.622,0,1.295-0.252,1.813-0.688l1.132,1.243c-0.814,0.748-1.85,1.088-3.057,1.088c-2.198,0-3.723-1.495-3.723-3.753
					c0-2.258,1.48-3.797,3.627-3.797C292.544,467.99,293.958,469.522,293.965,471.757z M288.851,471.091h3.175
					c-0.177-0.918-0.733-1.436-1.562-1.436C289.554,469.655,289.021,470.203,288.851,471.091z"/>
			</g>
			<g id="XMLID_328_">
				<path style="fill:#999999;" d="M301.618,471.757c0,0.222-0.015,0.489-0.037,0.651h-5.085c0.207,1.036,0.932,1.488,1.843,1.488
					c0.622,0,1.295-0.252,1.813-0.688l1.132,1.243c-0.814,0.748-1.85,1.088-3.057,1.088c-2.198,0-3.723-1.495-3.723-3.753
					c0-2.258,1.48-3.797,3.627-3.797C300.197,467.99,301.611,469.522,301.618,471.757z M296.504,471.091h3.175
					c-0.178-0.918-0.733-1.436-1.562-1.436C297.207,469.655,296.674,470.203,296.504,471.091z"/>
			</g>
			<g id="XMLID_325_">
				<path style="fill:#999999;" d="M309.964,471.764c0,2.154-1.495,3.775-3.471,3.775c-0.962,0-1.643-0.378-2.109-0.933v3.708
					h-1.924v-10.133h1.887v0.792c0.466-0.585,1.155-0.984,2.139-0.984C308.469,467.99,309.964,469.61,309.964,471.764z
					 M304.287,471.764c0,1.132,0.747,1.976,1.843,1.976c1.14,0,1.85-0.881,1.85-1.976c0-1.095-0.71-1.976-1.85-1.976
					C305.035,469.788,304.287,470.632,304.287,471.764z"/>
			</g>
			<g id="XMLID_322_">
				<path style="fill:#999999;" d="M313.068,465.836c0,0.696-0.54,1.229-1.236,1.229c-0.696,0-1.229-0.533-1.229-1.229
					c0-0.696,0.533-1.243,1.229-1.243C312.527,464.592,313.068,465.14,313.068,465.836z M312.809,475.354h-1.932v-7.172h1.932
					V475.354z"/>
			</g>
			<g id="XMLID_320_">
				<path style="fill:#999999;" d="M316.032,470.736l2.702-2.554h2.368l-3.479,3.375l3.501,3.797h-2.376l-2.716-2.901v2.901H314.1
					v-10.658h1.932V470.736z"/>
			</g>
		</g>
		<g>
			<g>
				<path style="fill:#999999;" d="M184.412,475.289v-1.055c-0.527,0.718-1.391,1.23-2.387,1.23c-1.846,0-3.149-1.406-3.149-3.706
					c0-2.256,1.289-3.721,3.149-3.721c0.952,0,1.816,0.469,2.387,1.245v-3.765h1.099v9.77H184.412z M184.412,473.37v-3.208
					c-0.395-0.615-1.245-1.143-2.124-1.143c-1.421,0-2.27,1.172-2.27,2.739c0,1.567,0.85,2.724,2.27,2.724
					C183.168,474.483,184.017,473.986,184.412,473.37z"/>
			</g>
			<g>
				<path style="fill:#999999;" d="M186.932,471.744c0-2.051,1.465-3.706,3.486-3.706c2.139,0,3.398,1.67,3.398,3.794v0.279h-5.727
					c0.088,1.333,1.025,2.446,2.549,2.446c0.805,0,1.626-0.322,2.182-0.894l0.527,0.718c-0.703,0.703-1.655,1.084-2.812,1.084
					C188.44,475.465,186.932,473.956,186.932,471.744z M190.403,468.947c-1.509,0-2.256,1.274-2.314,2.358h4.643
					C192.718,470.25,192.015,468.947,190.403,468.947z"/>
			</g>
			<g>
				<path style="fill:#999999;" d="M194.607,474.351l0.571-0.791c0.469,0.542,1.362,1.011,2.329,1.011
					c1.084,0,1.67-0.513,1.67-1.216c0-1.714-4.38-0.659-4.38-3.281c0-1.098,0.952-2.036,2.636-2.036
					c1.201,0,2.051,0.454,2.622,1.026l-0.513,0.762c-0.424-0.513-1.201-0.894-2.109-0.894c-0.967,0-1.567,0.483-1.567,1.113
					c0,1.552,4.38,0.527,4.38,3.281c0,1.187-0.952,2.138-2.783,2.138C196.306,475.465,195.325,475.113,194.607,474.351z"/>
			</g>
			<g>
				<path style="fill:#999999;" d="M201.477,466.471c0-0.41,0.337-0.747,0.732-0.747c0.41,0,0.747,0.337,0.747,0.747
					c0,0.41-0.337,0.732-0.747,0.732C201.814,467.203,201.477,466.881,201.477,466.471z M201.667,475.289v-7.075h1.099v7.075
					H201.667z"/>
			</g>
			<g>
				<path style="fill:#999999;" d="M204.582,477.105l0.556-0.82c0.586,0.703,1.289,0.967,2.3,0.967c1.172,0,2.27-0.571,2.27-2.124
					v-1.011c-0.513,0.718-1.377,1.26-2.373,1.26c-1.845,0-3.149-1.377-3.149-3.662c0-2.27,1.289-3.677,3.149-3.677
					c0.952,0,1.802,0.469,2.373,1.245v-1.069h1.098v6.87c0,2.344-1.641,3.076-3.369,3.076
					C206.237,478.16,205.417,477.926,204.582,477.105z M209.709,473.253v-3.091c-0.381-0.615-1.23-1.143-2.109-1.143
					c-1.421,0-2.27,1.128-2.27,2.695c0,1.553,0.849,2.695,2.27,2.695C208.478,474.41,209.328,473.868,209.709,473.253z"/>
			</g>
			<g>
				<path style="fill:#999999;" d="M217.413,475.289v-4.629c0-1.245-0.63-1.641-1.582-1.641c-0.865,0-1.685,0.527-2.095,1.099v5.17
					h-1.099v-7.075h1.099v1.025c0.498-0.586,1.464-1.201,2.519-1.201c1.48,0,2.256,0.747,2.256,2.285v4.966H217.413z"/>
			</g>
			<g>
				<path style="fill:#999999;" d="M219.932,471.744c0-2.051,1.465-3.706,3.486-3.706c2.139,0,3.398,1.67,3.398,3.794v0.279h-5.727
					c0.088,1.333,1.025,2.446,2.549,2.446c0.806,0,1.626-0.322,2.183-0.894l0.527,0.718c-0.703,0.703-1.655,1.084-2.812,1.084
					C221.441,475.465,219.932,473.956,219.932,471.744z M223.404,468.947c-1.509,0-2.256,1.274-2.314,2.358h4.643
					C225.718,470.25,225.015,468.947,223.404,468.947z"/>
			</g>
			<g>
				<path style="fill:#999999;" d="M233.35,475.289v-1.055c-0.527,0.718-1.392,1.23-2.388,1.23c-1.846,0-3.149-1.406-3.149-3.706
					c0-2.256,1.289-3.721,3.149-3.721c0.952,0,1.817,0.469,2.388,1.245v-3.765h1.098v9.77H233.35z M233.35,473.37v-3.208
					c-0.396-0.615-1.245-1.143-2.124-1.143c-1.421,0-2.27,1.172-2.27,2.739c0,1.567,0.849,2.724,2.27,2.724
					C232.105,474.483,232.954,473.986,233.35,473.37z"/>
			</g>
			<g>
				<path style="fill:#999999;" d="M239.692,475.289v-9.77h1.098v3.765c0.572-0.776,1.421-1.245,2.388-1.245
					c1.845,0,3.149,1.465,3.149,3.721c0,2.299-1.304,3.706-3.149,3.706c-0.996,0-1.86-0.513-2.388-1.23v1.055H239.692z
					 M242.9,474.483c1.436,0,2.285-1.157,2.285-2.724c0-1.568-0.85-2.739-2.285-2.739c-0.864,0-1.728,0.527-2.109,1.143v3.208
					C241.171,473.986,242.036,474.483,242.9,474.483z"/>
			</g>
			<g>
				<path style="fill:#999999;" d="M247.528,477.061c0.161,0.073,0.425,0.117,0.601,0.117c0.483,0,0.805-0.161,1.055-0.747
					l0.469-1.069l-2.959-7.148h1.187l2.358,5.8l2.344-5.8h1.201l-3.545,8.51c-0.425,1.025-1.143,1.421-2.08,1.435
					c-0.234,0-0.601-0.044-0.805-0.103L247.528,477.061z"/>
			</g>
		</g>
	</g>
</g>
</svg>
